<svg xmlns="http://www.w3.org/2000/svg" viewBox="-16 -18 32 40" role="img" aria-label="TenAceIQ left-handed player icon">
  <defs>
    <filter id="glow" x="-40%" y="-40%" width="180%" height="180%">
      <feDropShadow dx="0" dy="0" stdDeviation="1.4" flood-color="#9BE11D" flood-opacity=".55"/>
    </filter>
  </defs>
  <g transform="scale(-1 1)" fill="none" stroke="#9BE11D" stroke-linecap="round" stroke-linejoin="round" filter="url(#glow)">
    <ellipse cx="0" cy="12" rx="8.5" ry="2" fill="#9BE11D" opacity=".22" stroke="none"/>
    <circle cx="0" cy="-9" r="5.2" fill="#07101E" stroke-width="1.6"/>
    <path d="M-4.7-8.9C-2.5-12.2.1-11.5 2.1-8.8 3.3-7.2 4.6-7.2 5.2-8.5" stroke-width="1.35"/>
    <path d="M0-3.3V7.2M0-1.2l-6 4.3M0-1.2l6.8-.7M0 7.2l-5.2 7.2M0 7.2l5.8 6.5" stroke-width="1.7"/>
    <path d="M5.9-1.8c2.4-1.4 3.9-3.2 4.6-5.5" stroke-width="1.15"/>
    <ellipse cx="11.1" cy="-8.7" rx="2.4" ry="3.1" transform="rotate(24 11.1 -8.7)" stroke-width="1.1"/>
  </g>
</svg>
