<svg width="1600" height="1000" viewBox="0 0 1600 1000" fill="none" xmlns="http://www.w3.org/2000/svg">
  <rect width="1600" height="1000" fill="#07111F"/>
  <defs>
    <radialGradient id="courtGlow" cx="50%" cy="50%" r="70%">
      <stop offset="0%" stop-color="#9BE11D" stop-opacity="0.16"/>
      <stop offset="100%" stop-color="#9BE11D" stop-opacity="0"/>
    </radialGradient>
    <linearGradient id="courtBlue" x1="0" y1="0" x2="0" y2="1">
      <stop offset="0%" stop-color="#082B65"/>
      <stop offset="100%" stop-color="#061B3D"/>
    </linearGradient>
    <linearGradient id="netGradient" x1="0" y1="0" x2="1" y2="0">
      <stop offset="0%" stop-color="#07111F"/>
      <stop offset="50%" stop-color="#0A1B35"/>
      <stop offset="100%" stop-color="#07111F"/>
    </linearGradient>
    <filter id="softGlow" x="-50%" y="-50%" width="200%" height="200%">
      <feGaussianBlur stdDeviation="16" result="blur"/>
      <feMerge><feMergeNode in="blur"/><feMergeNode in="SourceGraphic"/></feMerge>
    </filter>
  </defs>
  <ellipse cx="800" cy="500" rx="640" ry="430" fill="url(#courtGlow)"/>
  <g filter="url(#softGlow)">
    <path d="M370 92 H1230 L1338 905 H262 Z" fill="url(#courtBlue)"/>
    <path d="M370 92 H1230 L1338 905 H262 Z" stroke="white" stroke-width="6"/>
    <path d="M505 92 L403 905" stroke="white" stroke-width="5"/>
    <path d="M1095 92 L1197 905" stroke="white" stroke-width="5"/>
    <path d="M442 320 H1158" stroke="white" stroke-width="5"/>
    <path d="M442 680 H1158" stroke="white" stroke-width="5"/>
    <path d="M800 320 V680" stroke="white" stroke-width="5"/>
    <path d="M790 92 H810" stroke="white" stroke-width="4"/>
    <path d="M790 905 H810" stroke="white" stroke-width="4"/>
  </g>
  <g>
    <rect x="245" y="462" width="1110" height="58" rx="4" fill="url(#netGradient)" stroke="#172A46" stroke-width="2"/>
    <g opacity="0.46">
      <path d="M245 475 H1355M245 488 H1355M245 501 H1355" stroke="#31527F" stroke-width="1"/>
      <path d="M300 462 V520M355 462 V520M410 462 V520M465 462 V520M520 462 V520M575 462 V520M630 462 V520M685 462 V520M740 462 V520M795 462 V520M850 462 V520M905 462 V520M960 462 V520M1015 462 V520M1070 462 V520M1125 462 V520M1180 462 V520M1235 462 V520M1290 462 V520" stroke="#31527F" stroke-width="1"/>
    </g>
    <rect x="240" y="445" width="14" height="92" rx="7" fill="#0A0F19" stroke="white" stroke-opacity="0.6"/>
    <rect x="1346" y="445" width="14" height="92" rx="7" fill="#0A0F19" stroke="white" stroke-opacity="0.6"/>
    <g transform="translate(340 474)">
      <circle cx="20" cy="17" r="15" stroke="white" stroke-width="3"/>
      <path d="M8 17C14 6 26 6 34 17C27 28 15 28 8 17Z" fill="#9BE11D"/>
      <text x="48" y="25" fill="white" font-size="28" font-family="Inter, Arial, sans-serif" font-weight="700">TenAce<tspan fill="#9BE11D">IQ</tspan></text>
    </g>
    <g transform="translate(1045 474)">
      <circle cx="20" cy="17" r="15" stroke="white" stroke-width="3"/>
      <path d="M8 17C14 6 26 6 34 17C27 28 15 28 8 17Z" fill="#9BE11D"/>
      <text x="48" y="25" fill="white" font-size="28" font-family="Inter, Arial, sans-serif" font-weight="700">TenAce<tspan fill="#9BE11D">IQ</tspan></text>
    </g>
  </g>
</svg>
