<svg xmlns="http://www.w3.org/2000/svg" viewBox="0 0 512 512">
    
    <g fill="#FFFFFF">
    <path d="
      M 230,58
      A 172,172 0 1,1 229.9,402
      A 172,172 0 1,1 230,58
      M 230,132
      A 98,98 0 1,0 230.1,328
      A 98,98 0 1,0 230,132
    " fill-rule="evenodd"/>
    <path d="M 248,290 L 330,290 L 417,388 L 334,388 L 272,322 Z"/>
    </g>
        <defs><clipPath id="qIconReverseBall"><circle cx="366" cy="231" r="58"/></clipPath></defs>
        <circle cx="366" cy="231" r="58" fill="#9BE11D"/>
        <path d="M 310.32,217.08 C 332.36,177.64 371.80,182.28 380.50,225.20 C 385.72,247.24 367.16,264.64 377.60,289.00" fill="none" stroke="#FFFFFF" stroke-width="10"
              stroke-linecap="round" clip-path="url(#qIconReverseBall)"/>
        
    </svg>