<svg xmlns="http://www.w3.org/2000/svg" viewBox="60 75 1045 490">
    
    <g>
      <path d="M1007.00,513.00 L930.00,429.00 L959.00,406.00 L977.00,388.00 L977.00,386.00 L966.00,379.00 L959.00,372.00 L942.00,388.00 L912.00,410.00 L885.00,383.00 L791.00,383.00 L816.00,413.00 L810.00,415.00 L777.00,415.00 L744.00,409.00 L722.00,400.00 L707.00,390.00 L689.00,370.00 L690.00,368.00 L720.00,362.00 L814.00,347.00 L877.00,340.00 L938.00,337.00 L932.00,307.00 L921.00,314.00 L865.00,317.00 L795.00,324.00 L697.00,339.00 L567.00,366.00 L468.00,392.00 L376.00,421.00 L257.00,466.00 L167.00,507.00 L114.00,535.00 L75.00,559.00 L79.00,559.00 L117.00,540.00 L200.00,505.00 L274.00,477.00 L337.00,456.00 L446.00,424.00 L598.00,387.00 L619.00,417.00 L637.00,434.00 L655.00,446.00 L694.00,463.00 L728.00,471.00 L781.00,474.00 L821.00,470.00 L857.00,462.00 L904.00,514.00 Z M612.00,180.00 L514.00,180.00 L465.00,265.00 L394.00,395.00 L508.00,363.00 Z M530.00,91.00 L525.00,89.00 L192.00,89.00 L141.00,161.00 L281.00,161.00 L282.00,163.00 L133.00,437.00 L231.00,437.00 L384.00,161.00 L486.00,161.00 Z M1049.00,168.00 L1036.00,143.00 L1015.00,121.00 L988.00,105.00 L953.00,93.00 L910.00,87.00 L866.00,88.00 L817.00,96.00 L775.00,109.00 L735.00,127.00 L696.00,151.00 L667.00,174.00 L634.00,208.00 L612.00,240.00 L596.00,273.00 L586.00,312.00 L586.00,343.00 L588.00,344.00 L670.00,327.00 L671.00,303.00 L677.00,280.00 L689.00,254.00 L711.00,223.00 L737.00,198.00 L763.00,180.00 L795.00,164.00 L837.00,151.00 L873.00,146.00 L907.00,147.00 L934.00,154.00 L950.00,163.00 L960.00,173.00 L968.00,187.00 L971.00,198.00 L971.00,218.00 L965.00,238.00 L981.00,226.00 L1008.00,216.00 L1037.00,215.00 L1055.00,219.00 L1055.00,193.00 Z" fill="#0D1B2A" fill-rule="evenodd"/>
      <path d="M523.00,161.00 L626.00,161.00 L673.00,89.00 L569.00,89.00 Z" fill="#9BE11D" fill-rule="evenodd"/>
      
        <defs>
          <clipPath id="symbolBall">
            <circle cx="1015" cy="286" r="75"/>
          </clipPath>
        </defs>
        <circle cx="1015" cy="286" r="75" fill="#9BE11D"/>
        <path d="M 943.00,268.00 C 971.50,217.00 1022.50,223.00 1033.75,278.50 C 1040.50,307.00 1016.50,329.50 1030.00,361.00" fill="none" stroke="#FFFFFF" stroke-width="13"
              stroke-linecap="round" clip-path="url(#symbolBall)"/>
        
    </g>
    </svg>