<svg xmlns="http://www.w3.org/2000/svg" viewBox="0 0 1600 1000">
    
    
<rect width="1600" height="1000" fill="#FFFFFF"/>
<text x="70" y="70" fill="#0D1B2A" font-family="Inter, sans-serif" font-size="30" font-weight="700" letter-spacing="5">TENACEIQ — PRODUCTION STARTER SYSTEM</text>
<text x="70" y="112" fill="#647080" font-family="Inter, sans-serif" font-size="18">Flat vector artwork • locked diagonal inverted-U seam • no gradients or texture</text>

<g transform="translate(30,145) scale(0.95)">
  
<g transform="translate(20,8) scale(0.56)">
  
      <path d="M1007.00,513.00 L930.00,429.00 L959.00,406.00 L977.00,388.00 L977.00,386.00 L966.00,379.00 L959.00,372.00 L942.00,388.00 L912.00,410.00 L885.00,383.00 L791.00,383.00 L816.00,413.00 L810.00,415.00 L777.00,415.00 L744.00,409.00 L722.00,400.00 L707.00,390.00 L689.00,370.00 L690.00,368.00 L720.00,362.00 L814.00,347.00 L877.00,340.00 L938.00,337.00 L932.00,307.00 L921.00,314.00 L865.00,317.00 L795.00,324.00 L697.00,339.00 L567.00,366.00 L468.00,392.00 L376.00,421.00 L257.00,466.00 L167.00,507.00 L114.00,535.00 L75.00,559.00 L79.00,559.00 L117.00,540.00 L200.00,505.00 L274.00,477.00 L337.00,456.00 L446.00,424.00 L598.00,387.00 L619.00,417.00 L637.00,434.00 L655.00,446.00 L694.00,463.00 L728.00,471.00 L781.00,474.00 L821.00,470.00 L857.00,462.00 L904.00,514.00 Z M612.00,180.00 L514.00,180.00 L465.00,265.00 L394.00,395.00 L508.00,363.00 Z M530.00,91.00 L525.00,89.00 L192.00,89.00 L141.00,161.00 L281.00,161.00 L282.00,163.00 L133.00,437.00 L231.00,437.00 L384.00,161.00 L486.00,161.00 Z M1049.00,168.00 L1036.00,143.00 L1015.00,121.00 L988.00,105.00 L953.00,93.00 L910.00,87.00 L866.00,88.00 L817.00,96.00 L775.00,109.00 L735.00,127.00 L696.00,151.00 L667.00,174.00 L634.00,208.00 L612.00,240.00 L596.00,273.00 L586.00,312.00 L586.00,343.00 L588.00,344.00 L670.00,327.00 L671.00,303.00 L677.00,280.00 L689.00,254.00 L711.00,223.00 L737.00,198.00 L763.00,180.00 L795.00,164.00 L837.00,151.00 L873.00,146.00 L907.00,147.00 L934.00,154.00 L950.00,163.00 L960.00,173.00 L968.00,187.00 L971.00,198.00 L971.00,218.00 L965.00,238.00 L981.00,226.00 L1008.00,216.00 L1037.00,215.00 L1055.00,219.00 L1055.00,193.00 Z" fill="#0D1B2A" fill-rule="evenodd"/>
      <path d="M523.00,161.00 L626.00,161.00 L673.00,89.00 L569.00,89.00 Z" fill="#9BE11D" fill-rule="evenodd"/>
      
        <defs>
          <clipPath id="primaryBall">
            <circle cx="1015" cy="286" r="75"/>
          </clipPath>
        </defs>
        <circle cx="1015" cy="286" r="75" fill="#9BE11D"/>
        <path d="M 943.00,268.00 C 971.50,217.00 1022.50,223.00 1033.75,278.50 C 1040.50,307.00 1016.50,329.50 1030.00,361.00" fill="none" stroke="#FFFFFF" stroke-width="13"
              stroke-linecap="round" clip-path="url(#primaryBall)"/>
        
    
</g>
<line x1="695" y1="82" x2="695" y2="338" stroke="#0D1B2A" stroke-width="3"/>
<path d="M768.141,195.266 L799.212,195.266 L799.212,280.000 L813.805,280.000 L813.805,195.266 L844.751,195.266 L844.751,182.515 L768.141,182.515 L768.141,195.266 Z M885.189,281.570 C900.829,281.570 913.141,272.337 915.695,259.000 L902.400,259.000 C900.432,265.532 894.423,270.055 885.398,270.055 C873.297,270.055 866.345,261.617 865.885,249.180 L916.742,249.180 L916.742,245.453 C916.742,224.118 904.033,209.336 884.477,209.336 C865.633,209.336 852.275,224.516 852.275,245.579 C852.275,266.453 864.712,281.570 885.189,281.570 Z M866.031,238.711 C867.204,227.719 874.197,220.852 884.603,220.852 C895.072,220.852 902.148,227.719 903.258,238.711 L866.031,238.711 Z M942.440,240.219 C942.440,227.384 949.705,221.898 959.127,221.898 C968.675,221.898 974.244,227.593 974.244,238.648 L974.244,280.000 L988.042,280.000 L988.042,236.952 C988.042,218.883 977.259,209.524 963.064,209.524 C953.956,209.524 946.900,213.461 942.189,221.312 L942.189,210.906 L928.642,210.906 L928.642,280.000 L942.440,280.000 L942.440,240.219 Z M996.883,280.000 L1012.335,280.000 L1021.233,254.687 L1060.554,254.687 L1069.180,280.000 L1084.946,280.000 L1049.813,182.515 L1032.288,182.515 L996.883,280.000 Z M1025.609,242.312 L1031.702,225.039 C1034.382,216.999 1037.188,208.415 1041.124,195.789 C1044.976,208.415 1047.719,216.999 1050.399,225.039 L1056.303,242.312 L1025.609,242.312 Z M1123.416,281.570 C1139.915,281.570 1152.079,270.704 1153.650,256.320 L1139.726,256.320 C1137.884,264.360 1132.984,269.657 1123.500,269.657 C1111.523,269.657 1104.447,260.235 1104.447,245.579 C1104.447,230.797 1111.586,221.249 1123.500,221.249 C1132.838,221.249 1138.470,226.735 1139.915,234.524 L1153.650,234.524 C1151.954,219.868 1139.915,209.336 1123.416,209.336 C1103.735,209.336 1090.439,224.327 1090.439,245.579 C1090.439,266.726 1103.672,281.570 1123.416,281.570 Z M1194.868,281.570 C1210.508,281.570 1222.819,272.337 1225.374,259.000 L1212.078,259.000 C1210.110,265.532 1204.101,270.055 1195.077,270.055 C1182.975,270.055 1176.024,261.617 1175.563,249.180 L1226.421,249.180 L1226.421,245.453 C1226.421,224.118 1213.712,209.336 1194.156,209.336 C1175.312,209.336 1161.954,224.516 1161.954,245.579 C1161.954,266.453 1174.391,281.570 1194.868,281.570 Z M1175.710,238.711 C1176.883,227.719 1183.876,220.852 1194.282,220.852 C1204.750,220.852 1211.827,227.719 1212.937,238.711 L1175.710,238.711 Z" fill="#0D1B2A"/><path d="M1251.933,182.515 L1237.402,182.515 L1237.402,280.000 L1251.933,280.000 L1251.933,182.515 Z M1310.950,281.570 C1317.022,281.570 1322.654,280.461 1327.826,278.367 L1335.677,288.836 L1350.459,288.836 L1337.897,272.546 C1349.035,263.773 1355.840,249.243 1355.840,231.320 C1355.840,201.359 1336.913,180.945 1310.950,180.945 C1284.967,180.945 1266.123,201.359 1266.123,231.320 C1266.123,261.093 1284.967,281.570 1310.950,281.570 Z M1304.983,248.531 L1319.199,267.165 C1316.582,267.961 1313.819,268.296 1310.950,268.296 C1294.137,268.296 1280.716,255.063 1280.716,231.320 C1280.716,207.431 1294.137,194.219 1310.950,194.219 C1327.763,194.219 1341.247,207.431 1341.247,231.320 C1341.247,245.181 1336.599,255.524 1329.396,261.680 L1319.325,248.531 L1304.983,248.531 Z" fill="#9BE11D"/>

</g>

<line x1="70" y1="560" x2="1530" y2="560" stroke="#D9DEE5" stroke-width="2"/>

<text x="70" y="615" fill="#0D1B2A" font-family="Inter, sans-serif" font-size="22" font-weight="700" letter-spacing="3">CORE ASSETS</text>

<rect x="70" y="650" width="330" height="260" rx="20" fill="#F6F8FA"/>
<g transform="translate(78,680) scale(0.27)">
  
      <path d="M1007.00,513.00 L930.00,429.00 L959.00,406.00 L977.00,388.00 L977.00,386.00 L966.00,379.00 L959.00,372.00 L942.00,388.00 L912.00,410.00 L885.00,383.00 L791.00,383.00 L816.00,413.00 L810.00,415.00 L777.00,415.00 L744.00,409.00 L722.00,400.00 L707.00,390.00 L689.00,370.00 L690.00,368.00 L720.00,362.00 L814.00,347.00 L877.00,340.00 L938.00,337.00 L932.00,307.00 L921.00,314.00 L865.00,317.00 L795.00,324.00 L697.00,339.00 L567.00,366.00 L468.00,392.00 L376.00,421.00 L257.00,466.00 L167.00,507.00 L114.00,535.00 L75.00,559.00 L79.00,559.00 L117.00,540.00 L200.00,505.00 L274.00,477.00 L337.00,456.00 L446.00,424.00 L598.00,387.00 L619.00,417.00 L637.00,434.00 L655.00,446.00 L694.00,463.00 L728.00,471.00 L781.00,474.00 L821.00,470.00 L857.00,462.00 L904.00,514.00 Z M612.00,180.00 L514.00,180.00 L465.00,265.00 L394.00,395.00 L508.00,363.00 Z M530.00,91.00 L525.00,89.00 L192.00,89.00 L141.00,161.00 L281.00,161.00 L282.00,163.00 L133.00,437.00 L231.00,437.00 L384.00,161.00 L486.00,161.00 Z M1049.00,168.00 L1036.00,143.00 L1015.00,121.00 L988.00,105.00 L953.00,93.00 L910.00,87.00 L866.00,88.00 L817.00,96.00 L775.00,109.00 L735.00,127.00 L696.00,151.00 L667.00,174.00 L634.00,208.00 L612.00,240.00 L596.00,273.00 L586.00,312.00 L586.00,343.00 L588.00,344.00 L670.00,327.00 L671.00,303.00 L677.00,280.00 L689.00,254.00 L711.00,223.00 L737.00,198.00 L763.00,180.00 L795.00,164.00 L837.00,151.00 L873.00,146.00 L907.00,147.00 L934.00,154.00 L950.00,163.00 L960.00,173.00 L968.00,187.00 L971.00,198.00 L971.00,218.00 L965.00,238.00 L981.00,226.00 L1008.00,216.00 L1037.00,215.00 L1055.00,219.00 L1055.00,193.00 Z" fill="#0D1B2A" fill-rule="evenodd"/>
      <path d="M523.00,161.00 L626.00,161.00 L673.00,89.00 L569.00,89.00 Z" fill="#9BE11D" fill-rule="evenodd"/>
      
        <defs>
          <clipPath id="previewSymbolBall">
            <circle cx="1015" cy="286" r="75"/>
          </clipPath>
        </defs>
        <circle cx="1015" cy="286" r="75" fill="#9BE11D"/>
        <path d="M 943.00,268.00 C 971.50,217.00 1022.50,223.00 1033.75,278.50 C 1040.50,307.00 1016.50,329.50 1030.00,361.00" fill="none" stroke="#FFFFFF" stroke-width="13"
              stroke-linecap="round" clip-path="url(#previewSymbolBall)"/>
        
    
</g>
<text x="95" y="875" fill="#0D1B2A" font-family="Inter, sans-serif" font-size="18" font-weight="600">TiQ symbol</text>

<rect x="430" y="650" width="300" height="260" rx="20" fill="#F6F8FA"/>
<g transform="translate(480,675) scale(0.36)">
  <g fill="#0D1B2A">
    <path d="
      M 230,58
      A 172,172 0 1,1 229.9,402
      A 172,172 0 1,1 230,58
      M 230,132
      A 98,98 0 1,0 230.1,328
      A 98,98 0 1,0 230,132
    " fill-rule="evenodd"/>
    <path d="M 248,290 L 330,290 L 417,388 L 334,388 L 272,322 Z"/>
    </g>
        <defs><clipPath id="previewQBall"><circle cx="366" cy="231" r="58"/></clipPath></defs>
        <circle cx="366" cy="231" r="58" fill="#9BE11D"/>
        <path d="M 310.32,217.08 C 332.36,177.64 371.80,182.28 380.50,225.20 C 385.72,247.24 367.16,264.64 377.60,289.00" fill="none" stroke="#FFFFFF" stroke-width="10"
              stroke-linecap="round" clip-path="url(#previewQBall)"/>
        
</g>
<text x="455" y="875" fill="#0D1B2A" font-family="Inter, sans-serif" font-size="18" font-weight="600">Q icon</text>

<rect x="760" y="650" width="300" height="260" rx="20" fill="#F6F8FA"/>
<g transform="translate(805,680) scale(0.34)">
  
<rect x="16" y="16" width="480" height="480" rx="104" fill="#0D1B2A"/>
<g transform="translate(20,20) scale(0.92)">
  <g fill="#FFFFFF">
    <path d="
      M 230,58
      A 172,172 0 1,1 229.9,402
      A 172,172 0 1,1 230,58
      M 230,132
      A 98,98 0 1,0 230.1,328
      A 98,98 0 1,0 230,132
    " fill-rule="evenodd"/>
    <path d="M 248,290 L 330,290 L 417,388 L 334,388 L 272,322 Z"/>
    </g>
        <defs><clipPath id="appBall"><circle cx="366" cy="231" r="58"/></clipPath></defs>
        <circle cx="366" cy="231" r="58" fill="#9BE11D"/>
        <path d="M 310.32,217.08 C 332.36,177.64 371.80,182.28 380.50,225.20 C 385.72,247.24 367.16,264.64 377.60,289.00" fill="none" stroke="#FFFFFF" stroke-width="10"
              stroke-linecap="round" clip-path="url(#appBall)"/>
        
</g>

</g>
<text x="785" y="875" fill="#0D1B2A" font-family="Inter, sans-serif" font-size="18" font-weight="600">App icon</text>

<rect x="1090" y="650" width="440" height="260" rx="20" fill="#0D1B2A"/>
<g transform="translate(1110,700) scale(0.34)">
  
      <path d="M1007.00,513.00 L930.00,429.00 L959.00,406.00 L977.00,388.00 L977.00,386.00 L966.00,379.00 L959.00,372.00 L942.00,388.00 L912.00,410.00 L885.00,383.00 L791.00,383.00 L816.00,413.00 L810.00,415.00 L777.00,415.00 L744.00,409.00 L722.00,400.00 L707.00,390.00 L689.00,370.00 L690.00,368.00 L720.00,362.00 L814.00,347.00 L877.00,340.00 L938.00,337.00 L932.00,307.00 L921.00,314.00 L865.00,317.00 L795.00,324.00 L697.00,339.00 L567.00,366.00 L468.00,392.00 L376.00,421.00 L257.00,466.00 L167.00,507.00 L114.00,535.00 L75.00,559.00 L79.00,559.00 L117.00,540.00 L200.00,505.00 L274.00,477.00 L337.00,456.00 L446.00,424.00 L598.00,387.00 L619.00,417.00 L637.00,434.00 L655.00,446.00 L694.00,463.00 L728.00,471.00 L781.00,474.00 L821.00,470.00 L857.00,462.00 L904.00,514.00 Z M612.00,180.00 L514.00,180.00 L465.00,265.00 L394.00,395.00 L508.00,363.00 Z M530.00,91.00 L525.00,89.00 L192.00,89.00 L141.00,161.00 L281.00,161.00 L282.00,163.00 L133.00,437.00 L231.00,437.00 L384.00,161.00 L486.00,161.00 Z M1049.00,168.00 L1036.00,143.00 L1015.00,121.00 L988.00,105.00 L953.00,93.00 L910.00,87.00 L866.00,88.00 L817.00,96.00 L775.00,109.00 L735.00,127.00 L696.00,151.00 L667.00,174.00 L634.00,208.00 L612.00,240.00 L596.00,273.00 L586.00,312.00 L586.00,343.00 L588.00,344.00 L670.00,327.00 L671.00,303.00 L677.00,280.00 L689.00,254.00 L711.00,223.00 L737.00,198.00 L763.00,180.00 L795.00,164.00 L837.00,151.00 L873.00,146.00 L907.00,147.00 L934.00,154.00 L950.00,163.00 L960.00,173.00 L968.00,187.00 L971.00,198.00 L971.00,218.00 L965.00,238.00 L981.00,226.00 L1008.00,216.00 L1037.00,215.00 L1055.00,219.00 L1055.00,193.00 Z" fill="#FFFFFF" fill-rule="evenodd"/>
      <path d="M523.00,161.00 L626.00,161.00 L673.00,89.00 L569.00,89.00 Z" fill="#9BE11D" fill-rule="evenodd"/>
      
        <defs>
          <clipPath id="previewReverseBall">
            <circle cx="1015" cy="286" r="75"/>
          </clipPath>
        </defs>
        <circle cx="1015" cy="286" r="75" fill="#9BE11D"/>
        <path d="M 943.00,268.00 C 971.50,217.00 1022.50,223.00 1033.75,278.50 C 1040.50,307.00 1016.50,329.50 1030.00,361.00" fill="none" stroke="#FFFFFF" stroke-width="13"
              stroke-linecap="round" clip-path="url(#previewReverseBall)"/>
        
    
</g>
<text x="1120" y="875" fill="#FFFFFF" font-family="Inter, sans-serif" font-size="18" font-weight="600">Reverse use</text>

<circle cx="100" cy="950" r="16" fill="#0D1B2A"/>
<text x="130" y="957" fill="#0D1B2A" font-family="Inter, sans-serif" font-size="17">Midnight Navy #0D1B2A</text>
<circle cx="430" cy="950" r="16" fill="#9BE11D"/>
<text x="460" y="957" fill="#0D1B2A" font-family="Inter, sans-serif" font-size="17">Website Green #9BE11D</text>
<circle cx="750" cy="950" r="16" fill="#FFFFFF" stroke="#C7CDD5"/>
<text x="780" y="957" fill="#0D1B2A" font-family="Inter, sans-serif" font-size="17">White #FFFFFF</text>
<text x="1120" y="957" fill="#0D1B2A" font-family="Inter, sans-serif" font-size="16">Small-size favicon omits the seam for clarity.</text>

    </svg>