<svg xmlns="http://www.w3.org/2000/svg" viewBox="0 0 1200 780">
    
    
<g transform="translate(10,0) scale(0.92)">
  
      <path d="M1007.00,513.00 L930.00,429.00 L959.00,406.00 L977.00,388.00 L977.00,386.00 L966.00,379.00 L959.00,372.00 L942.00,388.00 L912.00,410.00 L885.00,383.00 L791.00,383.00 L816.00,413.00 L810.00,415.00 L777.00,415.00 L744.00,409.00 L722.00,400.00 L707.00,390.00 L689.00,370.00 L690.00,368.00 L720.00,362.00 L814.00,347.00 L877.00,340.00 L938.00,337.00 L932.00,307.00 L921.00,314.00 L865.00,317.00 L795.00,324.00 L697.00,339.00 L567.00,366.00 L468.00,392.00 L376.00,421.00 L257.00,466.00 L167.00,507.00 L114.00,535.00 L75.00,559.00 L79.00,559.00 L117.00,540.00 L200.00,505.00 L274.00,477.00 L337.00,456.00 L446.00,424.00 L598.00,387.00 L619.00,417.00 L637.00,434.00 L655.00,446.00 L694.00,463.00 L728.00,471.00 L781.00,474.00 L821.00,470.00 L857.00,462.00 L904.00,514.00 Z M612.00,180.00 L514.00,180.00 L465.00,265.00 L394.00,395.00 L508.00,363.00 Z M530.00,91.00 L525.00,89.00 L192.00,89.00 L141.00,161.00 L281.00,161.00 L282.00,163.00 L133.00,437.00 L231.00,437.00 L384.00,161.00 L486.00,161.00 Z M1049.00,168.00 L1036.00,143.00 L1015.00,121.00 L988.00,105.00 L953.00,93.00 L910.00,87.00 L866.00,88.00 L817.00,96.00 L775.00,109.00 L735.00,127.00 L696.00,151.00 L667.00,174.00 L634.00,208.00 L612.00,240.00 L596.00,273.00 L586.00,312.00 L586.00,343.00 L588.00,344.00 L670.00,327.00 L671.00,303.00 L677.00,280.00 L689.00,254.00 L711.00,223.00 L737.00,198.00 L763.00,180.00 L795.00,164.00 L837.00,151.00 L873.00,146.00 L907.00,147.00 L934.00,154.00 L950.00,163.00 L960.00,173.00 L968.00,187.00 L971.00,198.00 L971.00,218.00 L965.00,238.00 L981.00,226.00 L1008.00,216.00 L1037.00,215.00 L1055.00,219.00 L1055.00,193.00 Z" fill="#0D1B2A" fill-rule="evenodd"/>
      <path d="M523.00,161.00 L626.00,161.00 L673.00,89.00 L569.00,89.00 Z" fill="#9BE11D" fill-rule="evenodd"/>
      
        <defs>
          <clipPath id="stackedBall">
            <circle cx="1015" cy="286" r="75"/>
          </clipPath>
        </defs>
        <circle cx="1015" cy="286" r="75" fill="#9BE11D"/>
        <path d="M 943.00,268.00 C 971.50,217.00 1022.50,223.00 1033.75,278.50 C 1040.50,307.00 1016.50,329.50 1030.00,361.00" fill="none" stroke="#FFFFFF" stroke-width="13"
              stroke-linecap="round" clip-path="url(#stackedBall)"/>
        
    
</g>
<path d="M213.867,595.663 L252.127,595.663 L252.127,700.000 L270.096,700.000 L270.096,595.663 L308.201,595.663 L308.201,579.962 L213.867,579.962 L213.867,595.663 Z M357.994,701.934 C377.253,701.934 392.412,690.564 395.557,674.141 L379.186,674.141 C376.763,682.185 369.364,687.754 358.252,687.754 C343.350,687.754 334.791,677.364 334.224,662.050 L396.846,662.050 L396.846,657.461 C396.846,631.190 381.197,612.988 357.117,612.988 C333.914,612.988 317.466,631.680 317.466,657.616 C317.466,683.320 332.780,701.934 357.994,701.934 Z M334.404,649.159 C335.848,635.624 344.459,627.168 357.272,627.168 C370.163,627.168 378.877,635.624 380.243,649.159 L334.404,649.159 Z M428.490,651.016 C428.490,635.212 437.436,628.457 449.037,628.457 C460.794,628.457 467.651,635.470 467.651,649.082 L467.651,700.000 L484.641,700.000 L484.641,646.994 C484.641,624.745 471.364,613.220 453.884,613.220 C442.669,613.220 433.981,618.067 428.180,627.735 L428.180,614.922 L411.500,614.922 L411.500,700.000 L428.490,700.000 L428.490,651.016 Z M495.527,700.000 L514.554,700.000 L525.511,668.830 L573.928,668.830 L584.550,700.000 L603.963,700.000 L560.702,579.962 L539.123,579.962 L495.527,700.000 Z M530.899,653.594 L538.402,632.324 C541.702,622.424 545.156,611.854 550.003,596.308 C554.747,611.854 558.124,622.424 561.424,632.324 L568.695,653.594 L530.899,653.594 Z M651.333,701.934 C671.649,701.934 686.628,688.553 688.561,670.841 L671.417,670.841 C669.148,680.741 663.115,687.264 651.436,687.264 C636.689,687.264 627.975,675.663 627.975,657.616 C627.975,639.414 636.767,627.658 651.436,627.658 C662.935,627.658 669.870,634.413 671.649,644.003 L688.561,644.003 C686.473,625.956 671.649,612.988 651.333,612.988 C627.099,612.988 610.728,631.448 610.728,657.616 C610.728,683.655 627.021,701.934 651.333,701.934 Z M739.315,701.934 C758.573,701.934 773.733,690.564 776.878,674.141 L760.507,674.141 C758.084,682.185 750.684,687.754 739.573,687.754 C724.671,687.754 716.112,677.364 715.545,662.050 L778.167,662.050 L778.167,657.461 C778.167,631.190 762.518,612.988 738.438,612.988 C715.235,612.988 698.787,631.680 698.787,657.616 C698.787,683.320 714.101,701.934 739.315,701.934 Z M715.725,649.159 C717.169,635.624 725.780,627.168 738.593,627.168 C751.484,627.168 760.198,635.624 761.564,649.159 L715.725,649.159 Z" fill="#0D1B2A"/><path d="M810.044,579.962 L792.152,579.962 L792.152,700.000 L810.044,700.000 L810.044,579.962 Z M882.715,701.934 C890.191,701.934 897.126,700.567 903.494,697.989 L913.162,710.880 L931.364,710.880 L915.895,690.822 C929.611,680.020 937.990,662.127 937.990,640.059 C937.990,603.166 914.683,578.029 882.715,578.029 C850.720,578.029 827.517,603.166 827.517,640.059 C827.517,676.720 850.720,701.934 882.715,701.934 Z M875.367,661.251 L892.872,684.196 C889.650,685.176 886.247,685.588 882.715,685.588 C862.012,685.588 845.487,669.295 845.487,640.059 C845.487,610.642 862.012,594.374 882.715,594.374 C903.417,594.374 920.020,610.642 920.020,640.059 C920.020,657.126 914.297,669.862 905.428,677.441 L893.027,661.251 L875.367,661.251 Z" fill="#9BE11D"/>

    </svg>